HIERARCHY
ROOT Hips
{
	OFFSET 0.000000 0.000000 0.000000
	CHANNELS 6 Xposition Yposition Zposition Xrotation Yrotation Zrotation
	JOINT LeftUpLeg_virtual
	{
		OFFSET 0.000000 0.000000 0.000000
		CHANNELS 3 Xrotation Yrotation Zrotation
		JOINT LeftUpLeg
		{
			OFFSET 15.427100 -6.655098 0.678600
			CHANNELS 3 Xrotation Yrotation Zrotation
			JOINT LeftLeg
			{
				OFFSET 4.081073 -39.591068 13.024000
				CHANNELS 3 Xrotation Yrotation Zrotation
				JOINT LeftFoot
				{
					OFFSET -4.081074 -37.707932 -15.979700
					CHANNELS 3 Xrotation Yrotation Zrotation
					JOINT LeftToeBase
					{
						OFFSET 5.346399 -15.068900 20.645000
						CHANNELS 3 Xrotation Yrotation Zrotation
						JOINT LeftToe_End
						{
							OFFSET 2.754700 0.931300 11.300900
							CHANNELS 3 Xrotation Yrotation Zrotation
							End Site
							{
								OFFSET 0 0 0
							}
						}
					}
				}
			}
		}
	}
	JOINT RightUpLeg_virtual
	{
		OFFSET 0.000000 0.000000 0.000000
		CHANNELS 3 Xrotation Yrotation Zrotation
		JOINT RightUpLeg
		{
			OFFSET -15.569500 -6.655098 0.678600
			CHANNELS 3 Xrotation Yrotation Zrotation
			JOINT RightLeg
			{
				OFFSET -4.081825 -39.591045 13.023800
				CHANNELS 3 Xrotation Yrotation Zrotation
				JOINT RightFoot
				{
					OFFSET 4.081824 -37.707954 -15.979600
					CHANNELS 3 Xrotation Yrotation Zrotation
					JOINT RightToeBase
					{
						OFFSET -5.346400 -15.068900 20.645000
						CHANNELS 3 Xrotation Yrotation Zrotation
						JOINT RightToe_End
						{
							OFFSET -2.754700 0.931300 11.300900
							CHANNELS 3 Xrotation Yrotation Zrotation
							End Site
							{
								OFFSET 0 0 0
							}
						}
					}
				}
			}
		}
	}
	JOINT Spine_virtual
	{
		OFFSET 0.000000 0.000000 0.000000
		CHANNELS 3 Xrotation Yrotation Zrotation
		JOINT Spine
		{
			OFFSET -0.279200 12.230698 -2.892100
			CHANNELS 3 Xrotation Yrotation Zrotation
			JOINT Spine1
			{
				OFFSET -0.232667 10.192268 -1.242267
				CHANNELS 3 Xrotation Yrotation Zrotation
				JOINT Spine1_split
				{
					OFFSET -0.232667 10.192268 -1.242267
					CHANNELS 3 Xrotation Yrotation Zrotation
					JOINT Spine2
					{
						OFFSET -0.232667 10.192268 -1.242267
						CHANNELS 3 Xrotation Yrotation Zrotation
						JOINT Neck_virtual
						{
							OFFSET 0.000000 0.000000 0.000000
							CHANNELS 3 Xrotation Yrotation Zrotation
							JOINT Neck
							{
								OFFSET -0.418800 17.814194 8.416900
								CHANNELS 3 Xrotation Yrotation Zrotation
								JOINT Head
								{
									OFFSET 0.000000 7.031097 3.806800
									CHANNELS 3 Xrotation Yrotation Zrotation
									JOINT HeadTop_End
									{
										OFFSET 0.000000 24.646606 12.978600
										CHANNELS 3 Xrotation Yrotation Zrotation
										End Site
										{
											OFFSET 0 0 0
										}
									}
								}
							}
						}
						JOINT LeftShoulder_virtual
						{
							OFFSET 0.000000 0.000000 0.000000
							CHANNELS 3 Xrotation Yrotation Zrotation
							JOINT LeftShoulder
							{
								OFFSET 8.476499 7.247704 -3.868750
								CHANNELS 3 Xrotation Yrotation Zrotation
								JOINT LeftShoulder_split
								{
									OFFSET 8.476499 7.247704 -3.868750
									CHANNELS 3 Xrotation Yrotation Zrotation
									JOINT LeftArm
									{
										OFFSET 9.308998 -2.777710 0.208600
										CHANNELS 3 Xrotation Yrotation Zrotation
										JOINT LeftForeArm
										{
											OFFSET 29.972298 0.000000 0.000000
											CHANNELS 3 Xrotation Yrotation Zrotation
											JOINT LeftHand
											{
												OFFSET 26.026505 0.000000 0.000000
												CHANNELS 3 Xrotation Yrotation Zrotation
												End Site
												{
													OFFSET 0 0 0
												}
											}
										}
									}
								}
							}
						}
						JOINT RightShoulder_virtual
						{
							OFFSET 0.000000 0.000000 0.000000
							CHANNELS 3 Xrotation Yrotation Zrotation
							JOINT RightShoulder
							{
								OFFSET -7.570500 7.247704 -3.868750
								CHANNELS 3 Xrotation Yrotation Zrotation
								JOINT RightShoulder_split
								{
									OFFSET -7.570500 7.247704 -3.868750
									CHANNELS 3 Xrotation Yrotation Zrotation
									JOINT RightArm
									{
										OFFSET -9.308998 -2.777710 0.208500
										CHANNELS 3 Xrotation Yrotation Zrotation
										JOINT RightForeArm
										{
											OFFSET -29.972300 0.000000 0.000000
											CHANNELS 3 Xrotation Yrotation Zrotation
											JOINT RightHand
											{
												OFFSET -26.026505 0.000000 0.000000
												CHANNELS 3 Xrotation Yrotation Zrotation
												End Site
												{
													OFFSET 0 0 0
												}
											}
										}
									}
								}
							}
						}
					}
				}
			}
		}
	}
}
MOTION
Frames: 8
Frame Time: 0.03333333
-0.019735 91.932220 -6.271355 0.000000 0.000000 0.000000 3.675380 5.927932 -0.283563 -13.070965 8.676557 6.376788 22.791901 0.981590 -0.216911 -14.291074 1.762180 -6.389512 -1.339616 0.433833 0.562214 0.000000 0.000000 0.000000 3.869752 5.699042 -0.619520 -6.106696 -5.903942 -8.119094 18.323794 -6.802703 6.199738 -10.363435 -17.796741 1.946246 -0.796588 0.102917 -0.410878 0.000000 0.000000 0.000000 4.762378 2.929635 -1.454230 18.372307 -2.334246 -0.249673 0.314420 -0.079613 1.087964 1.078556 -0.385733 0.074111 0.000000 0.000000 0.000000 1.099408 -0.515737 0.471107 17.815587 3.020794 -0.746780 11.374212 2.388788 1.969331 0.000000 0.000000 0.000000 0.984320 0.002433 -0.061416 12.393184 -36.890699 -0.527839 1.682581 -1.377472 -3.139006 12.168740 17.478483 -47.112709 -1.349692 -36.947345 0.025234 0.000000 0.000000 0.000000 0.316571 -0.179919 0.761896 0.889865 -1.641683 7.426757 1.750362 5.930148 -1.459453 -0.281682 16.991883 36.561296 0.623184 15.129561 1.347193 0.000000 0.000000 0.000000 
0.048733 92.073593 -6.075039 0.000000 0.000000 0.000000 3.461293 5.964842 -0.187899 -12.631104 8.860577 6.244403 22.363352 0.981322 -0.219981 -14.178797 1.735258 -6.244493 -1.322191 0.440840 0.605400 0.000000 0.000000 0.000000 3.694515 5.698561 -0.530463 -5.742555 -5.890266 -8.197526 18.113030 -6.680761 6.154861 -10.175688 -17.832739 1.993427 -0.726259 0.090878 -0.394615 0.000000 0.000000 0.000000 4.518889 3.078948 -1.304934 17.788157 -2.361155 -0.238303 0.352460 -0.109859 1.004471 1.082780 -0.442142 0.050453 0.000000 0.000000 0.000000 1.127312 -0.558260 0.372600 17.790247 2.273949 -0.464357 11.390597 -0.152960 3.134096 0.000000 0.000000 0.000000 1.054897 -0.056458 -0.140074 12.112243 -36.636711 -0.497987 1.726870 -1.067165 -2.977682 13.717967 18.172424 -47.372519 -1.389082 -36.573259 -0.047675 0.000000 0.000000 0.000000 0.360065 -0.226533 0.717359 0.612222 -1.827881 7.037614 1.966185 6.016548 -1.334670 0.940068 16.224291 36.613905 0.682089 15.105865 1.243900 0.000000 0.000000 0.000000 
0.099626 92.162918 -5.970650 0.000000 0.000000 0.000000 3.258960 5.959358 -0.137261 -12.297312 8.947247 6.105755 22.013797 0.937524 -0.176817 -14.085742 1.697600 -6.083901 -1.284121 0.449977 0.600322 0.000000 0.000000 0.000000 3.522627 5.656707 -0.477147 -5.409090 -5.850639 -8.208176 17.957553 -6.556382 6.129023 -10.030940 -17.865258 2.039869 -0.728822 0.079833 -0.388269 0.000000 0.000000 0.000000 4.296690 3.214643 -1.203283 17.286640 -2.314118 -0.226063 0.427661 -0.137597 0.991368 1.119472 -0.475582 0.035131 0.000000 0.000000 0.000000 1.144822 -0.585528 0.332088 17.660924 1.611910 -0.221290 11.342715 -2.270794 4.081703 0.000000 0.000000 0.000000 1.153802 -0.113137 -0.141793 11.831035 -36.167477 -0.462095 1.835984 -0.719560 -2.831187 14.747056 18.408506 -47.915785 -1.500340 -36.370361 -0.164649 0.000000 0.000000 0.000000 0.426934 -0.267150 0.725215 0.431915 -2.019666 6.794269 2.201229 6.231648 -1.250810 1.237914 15.651648 37.238458 0.666878 14.929482 1.185577 0.000000 0.000000 0.000000 
0.129744 92.188461 -5.923588 0.000000 0.000000 0.000000 3.047004 5.941933 -0.109944 -12.056124 8.879171 5.952848 21.802097 0.832750 -0.081203 -13.995623 1.643803 -5.945386 -1.226292 0.460573 0.546282 0.000000 0.000000 0.000000 3.323087 5.607741 -0.440905 -5.110103 -5.771731 -8.167277 17.886054 -6.451585 6.116976 -9.960260 -17.914425 2.064334 -0.792964 0.070850 -0.393580 0.000000 0.000000 0.000000 4.069043 3.355345 -1.134325 16.880669 -2.199819 -0.214746 0.525082 -0.155547 1.038277 1.147450 -0.460504 -0.027553 0.000000 0.000000 0.000000 1.138994 -0.594526 0.339998 17.476309 1.058952 -0.054755 11.292977 -3.964838 4.845863 0.000000 0.000000 0.000000 1.257366 -0.162340 -0.087794 11.557295 -35.585593 -0.461383 1.873053 -0.317327 -2.725128 15.259348 18.200917 -48.587982 -1.708348 -36.066739 -0.325079 0.000000 0.000000 0.000000 0.496474 -0.291974 0.773097 0.361931 -2.187930 6.778690 2.413798 6.446183 -1.158655 0.740290 15.321542 38.374752 0.614089 14.531774 1.139120 0.000000 0.000000 0.000000 
0.140793 92.157532 -5.906456 0.000000 0.000000 0.000000 2.809314 5.943945 -0.075969 -11.851836 8.655292 5.763715 21.713105 0.682430 0.074879 -13.916144 1.591016 -5.830083 -1.149928 0.469509 0.454524 0.000000 0.000000 0.000000 3.079036 5.601322 -0.400972 -4.833562 -5.672077 -8.117344 17.920099 -6.383858 6.111351 -9.982426 -18.000725 2.046786 -0.865540 0.065149 -0.405009 0.000000 0.000000 0.000000 3.819312 3.540780 -1.068939 16.584165 -2.025263 -0.208647 0.629344 -0.160638 1.121712 1.132947 -0.450509 -0.130673 0.000000 0.000000 0.000000 1.096989 -0.585058 0.384351 17.281384 0.643274 0.012615 11.286423 -5.270494 5.451616 0.000000 0.000000 0.000000 1.338540 -0.195178 -0.005794 11.294744 -34.982173 -0.540025 1.825108 0.079691 -2.685101 15.325681 17.484205 -49.296600 -1.981236 -35.610209 -0.499650 0.000000 0.000000 0.000000 0.554704 -0.284313 0.841437 0.404528 -2.255409 7.076587 2.615231 6.618129 -1.117589 -0.327289 15.228322 39.970820 0.575569 13.903050 1.074299 0.000000 0.000000 0.000000 
0.134818 92.091507 -5.904057 0.000000 0.000000 0.000000 2.539650 5.993584 -0.007239 -11.627254 8.326496 5.526819 21.663526 0.504499 0.274761 -13.875340 1.543026 -5.731577 -1.076057 0.473279 0.348489 0.000000 0.000000 0.000000 2.774879 5.667087 -0.331821 -4.555613 -5.597618 -8.102229 18.022118 -6.366946 6.106268 -10.080332 -18.132033 1.991028 -0.907270 0.062453 -0.417355 0.000000 0.000000 0.000000 3.523201 3.790712 -0.969562 16.385313 -1.801227 -0.204282 0.726143 -0.154480 1.219382 1.107687 -0.424729 -0.183448 0.000000 0.000000 0.000000 1.025094 -0.560404 0.453341 17.118283 0.382428 -0.021302 11.347073 -6.202022 5.902319 0.000000 0.000000 0.000000 1.384402 -0.210000 0.085030 11.043338 -34.404687 -0.741595 1.705756 0.423872 -2.700811 15.018696 16.284149 -50.020142 -2.232220 -35.117110 -0.647287 0.000000 0.000000 0.000000 0.598236 -0.249324 0.919526 0.547138 -2.132970 7.682563 2.739025 6.634045 -1.090825 -1.800411 15.271459 41.918561 0.576037 13.302531 0.959114 0.000000 0.000000 0.000000 
0.114877 92.019394 -5.911045 0.000000 0.000000 0.000000 2.222792 6.120300 0.108973 -11.332718 7.987495 5.252172 21.565450 0.309240 0.476199 -13.852051 1.483788 -5.665741 -1.070160 0.471692 0.262719 0.000000 0.000000 0.000000 2.405509 5.799116 -0.220286 -4.260627 -5.604627 -8.153520 18.153234 -6.398267 6.095639 -10.194620 -18.311134 1.932277 -0.931851 0.061612 -0.427904 0.000000 0.000000 0.000000 3.168617 4.110494 -0.820112 16.262872 -1.541617 -0.198902 0.803154 -0.139352 1.316961 1.130948 -0.453558 -0.250169 0.000000 0.000000 0.000000 0.929776 -0.525307 0.540537 17.007909 0.285497 -0.123204 11.485860 -6.791734 6.200576 0.000000 0.000000 0.000000 1.389543 -0.209833 0.174004 10.809390 -33.904946 -1.070481 1.541070 0.672281 -2.706858 14.422892 14.677639 -50.788064 -2.376674 -34.723555 -0.725415 0.000000 0.000000 0.000000 0.623287 -0.195032 1.004202 0.763472 -1.759793 8.539114 2.748186 6.510688 -1.125383 -3.551229 15.381692 44.149643 0.635879 12.859283 0.782373 0.000000 0.000000 0.000000 
0.090808 91.954399 -5.927280 0.000000 0.000000 0.000000 1.861432 6.286318 0.266974 -10.979243 7.692242 4.960166 21.387013 0.101205 0.650400 -13.794674 1.416352 -5.633332 -1.138254 0.464630 0.207007 0.000000 0.000000 0.000000 1.983293 6.015419 -0.069504 -3.940219 -5.710413 -8.272388 18.281976 -6.462097 6.080075 -10.266857 -18.526743 1.910205 -0.973270 0.061955 -0.439294 0.000000 0.000000 0.000000 2.758046 4.496740 -0.626252 16.179166 -1.260565 -0.186264 0.861217 -0.121080 1.408819 1.220397 -0.547332 -0.302297 0.000000 0.000000 0.000000 0.816160 -0.486158 0.640024 16.940807 0.327323 -0.254290 11.675449 -7.093126 6.362883 0.000000 0.000000 0.000000 1.357768 -0.199911 0.257831 10.597517 -33.481102 -1.501812 1.364995 0.816625 -2.654572 13.551162 12.807146 -51.643665 -2.361946 -34.357969 -0.719344 0.000000 0.000000 0.000000 0.631043 -0.132278 1.095784 1.024979 -1.096407 9.561361 2.638842 6.334591 -1.231878 -5.448578 15.502286 46.562619 0.735703 12.571315 0.556857 0.000000 0.000000 0.000000 
